<?xml version="1.0" encoding="UTF-8" standalone="no"?>
<svg
   width="675"
   height="300"
   viewBox="0 0 675 300"
   fill="none"
   version="1.1"
   id="svg25"
   sodipodi:docname="logo-icurti-main.svg"
   inkscape:version="1.2.1 (9c6d41e410, 2022-07-14)"
   xmlns:inkscape="http://www.inkscape.org/namespaces/inkscape"
   xmlns:sodipodi="http://sodipodi.sourceforge.net/DTD/sodipodi-0.dtd"
   xmlns="http://www.w3.org/2000/svg"
   xmlns:svg="http://www.w3.org/2000/svg">
  <defs
     id="defs29" />
  <sodipodi:namedview
     id="namedview27"
     pagecolor="#ffffff"
     bordercolor="#000000"
     borderopacity="0.25"
     inkscape:showpageshadow="2"
     inkscape:pageopacity="0.0"
     inkscape:pagecheckerboard="0"
     inkscape:deskcolor="#d1d1d1"
     showgrid="false"
     inkscape:zoom="1.2424589"
     inkscape:cx="273.6509"
     inkscape:cy="171.43424"
     inkscape:window-width="2560"
     inkscape:window-height="1017"
     inkscape:window-x="-8"
     inkscape:window-y="-8"
     inkscape:window-maximized="1"
     inkscape:current-layer="svg25" />
  <g
     id="g425"
     transform="matrix(7.4272598,0,0,7.4272598,10.702621,33.043922)">
    <g
       id="Group">
      <g
         id="Group_2">
        <path
           id="Vector"
           fill-rule="evenodd"
           clip-rule="evenodd"
           d="m 81.8661,0.682881 c 0.8436,-0.5991703 1.7864,-0.804142 2.8277,-0.6144692 1.049,0.1474982 1.8854,0.6502992 2.5102,1.5081882 0.624,0.8579 0.8616,1.80538 0.7121,2.84071 -0.0976,0.58978 -0.3268,1.11553 -0.6878,1.5766 -0.3604,0.46085 -0.7216,0.9217 -1.0829,1.38277 -0.3603,0.46085 -0.6663,0.9193 -0.9167,1.37687 C 84.9772,9.21003 84.9296,9.70016 85.0833,10.2224 84.6739,9.91867 84.1779,9.50896 83.5954,8.99239 83.013,8.47691 82.4626,7.90156 81.9431,7.26568 81.4237,6.63067 80.9925,5.96048 80.6494,5.25642 80.3065,4.55214 80.1933,3.84109 80.3125,3.12501 80.4793,2.11437 80.9979,1.29997 81.8661,0.682881 Z"
           fill="#e72227" />
      </g>
      <g
         id="Group_3">
        <path
           id="Vector_2"
           fill-rule="evenodd"
           clip-rule="evenodd"
           d="m 82.2878,1.53216 c 0.1969,-0.14007 0.4181,-0.18792 0.661,-0.14356 0.2453,0.03518 0.4415,0.15209 0.5875,0.35269 0.146,0.2006 0.2014,0.42238 0.1668,0.66493 C 83.6799,2.54367 83.6262,2.66648 83.5417,2.77486 83.4578,2.88237 83.3731,2.9901 83.2884,3.09761 83.2045,3.20599 83.1328,3.31263 83.074,3.42014 83.0154,3.527 83.0041,3.64128 83.0404,3.76343 82.9444,3.69241 82.8287,3.59605 82.6922,3.47565 82.5563,3.35524 82.4267,3.22042 82.3059,3.07204 82.1849,2.92345 82.0838,2.76634 82.0033,2.60158 81.923,2.43682 81.8971,2.2714 81.9248,2.10402 81.9637,1.86758 82.0847,1.67638 82.2878,1.53216 Z"
           fill="#fffffa" />
      </g>
      <g
         id="Group_4">
        <path
           id="Vector_3"
           fill-rule="evenodd"
           clip-rule="evenodd"
           d="m 0.0400391,5.01552 c 0,0.99359 0.3654549,1.79598 1.0974709,2.41656 0.73091,0.61534 1.69101,0.92607 2.88604,0.92607 1.15986,0 2.11464,-0.32187 2.85175,-0.96037 C 7.61838,6.76037 7.99003,5.96476 7.99003,5.01552 7.99003,4.04509 7.62966,3.25472 6.90981,2.6562 6.18907,2.05201 5.2292,1.75308 4.02355,1.75308 2.82852,1.75308 1.86842,2.05201 1.13751,2.6562 0.405494,3.25472 0.0400391,4.04509 0.0400391,5.01552 Z"
           fill="#0047ab" />
      </g>
      <g
         id="Group_5">
        <path
           id="Vector_4"
           fill-rule="evenodd"
           clip-rule="evenodd"
           d="m 0.615234,5.57659 c 0,0.68964 0.254181,1.2462 0.762106,1.67711 0.50814,0.42764 1.17446,0.64376 2.00403,0.64376 0.80635,0 1.46912,-0.22377 1.98059,-0.6667 C 5.87784,6.78783 6.13623,6.23455 6.13623,5.57659 6.13623,4.90225 5.88558,4.35334 5.38629,3.93772 4.88589,3.51774 4.21869,3.31014 3.38137,3.31014 2.5518,3.31014 1.88548,3.51774 1.37734,3.93772 0.869415,4.35334 0.615234,4.90225 0.615234,5.57659 Z"
           fill="#fffffa" />
      </g>
      <g
         id="Group_6">
        <path
           id="Vector_5"
           fill-rule="evenodd"
           clip-rule="evenodd"
           d="M 4.04186,7.0385 C 3.66092,7.13334 3.28507,7.14186 2.91165,7.06582 2.54,6.9889 2.19268,6.83353 1.87036,6.60059 L 1.71484,5.9894 C 2.14866,6.22343 2.54442,6.37005 2.90302,6.42818 3.26162,6.4863 3.62641,6.46992 3.99695,6.37793 4.1872,6.33094 4.36683,6.26604 4.53452,6.18584 4.66924,6.12094 4.78936,6.0484 4.89488,5.96886 c -0.02411,0.02054 0.02589,-0.01945 0,0 l 0.14601,0.56355 c -0.02168,0.02294 0.025,-0.02229 0,0 C 4.93559,6.62878 4.80418,6.71924 4.6469,6.80381 4.45244,6.9087 4.25113,6.98649 4.04186,7.0385 Z"
           fill="#0047ab" />
      </g>
      <g
         id="Group_7">
        <path
           id="Vector_6"
           fill-rule="evenodd"
           clip-rule="evenodd"
           d="m 63.5004,15.5846 c -0.5453,-0.42 -1.3359,-0.6298 -2.36,-0.6298 -1.3359,0 -2.4524,0.5975 -3.3494,1.7855 -0.8978,1.1951 -1.3429,2.8169 -1.3429,4.8655 v 9.4279 H 51.9277 V 11.3364 h 4.5204 v 4.0579 h 0.0795 c 0.4391,-1.3854 1.1165,-2.4616 2.0343,-3.2437 0.9167,-0.774 1.9339,-1.1616 3.0641,-1.1616 0.8174,0 1.4424,0.1245 1.8744,0.368 z"
           fill="#0047ab" />
      </g>
      <g
         id="Group_8">
        <path
           id="Vector_7"
           fill-rule="evenodd"
           clip-rule="evenodd"
           d="m 49.719,31.0343 h -4.5204 v -3.1188 h -0.0794 c -1.3092,2.3901 -3.3501,3.5782 -6.1154,3.5782 -4.7122,0 -7.0653,-2.7905 -7.0653,-8.3838 V 11.3373 h 4.5195 v 11.3124 c 0,3.539 1.3826,5.3051 4.1479,5.3051 1.3359,0 2.4325,-0.4858 3.2966,-1.4571 0.8641,-0.9791 1.2961,-2.2527 1.2961,-3.8284 v -11.332 h 4.5204 z"
           fill="#0047ab" />
      </g>
      <g
         id="Group_9">
        <path
           id="Vector_8"
           fill-rule="evenodd"
           clip-rule="evenodd"
           d="m 29.7286,29.8786 c -2.1007,1.0764 -4.72,1.6151 -7.8438,1.6151 -4.0545,0 -7.2987,-1.2609 -9.7381,-3.7882 -2.43942,-2.5283 -3.66232,-5.8436 -3.66232,-9.9475 0,-4.4056 1.37576,-7.97086 4.12112,-10.68854 2.7455,-2.72468 6.2149,-4.0845 10.4095,-4.0845 2.6987,0 4.9385,0.38065 6.7136,1.13607 V 8.66462 C 27.8473,7.56177 25.7734,7.00959 23.4997,7.00959 c -3.0243,0 -5.4768,0.95272 -7.3512,2.86299 -1.8744,1.91112 -2.8187,4.46492 -2.8187,7.65572 0,3.0396 0.878,5.4629 2.632,7.2613 1.7552,1.8062 4.0554,2.705 6.9132,2.705 2.6323,0 4.9188,-0.6171 6.8536,-1.8445 z"
           fill="#0047ab" />
      </g>
      <g
         id="Group_10">
        <path
           id="Vector_9"
           fill-rule="evenodd"
           clip-rule="evenodd"
           d="m 85.0554,15.1262 c 0,-0.7897 -0.1926,-1.4444 -0.4371,-1.9701 -0.2455,-0.5249 -0.567,-0.9449 -0.9636,-1.26 -0.3976,-0.3157 -0.859,-0.5454 -1.3844,-0.6896 -0.5254,-0.1442 -1.1035,-0.2168 -1.7342,-0.2168 v 19.9925 h 4.5193 z"
           fill="#0047ab" />
      </g>
      <g
         id="Group_11">
        <path
           id="Vector_10"
           fill-rule="evenodd"
           clip-rule="evenodd"
           d="m 78.3264,30.8236 c -0.8778,0.4335 -2.041,0.6503 -3.4834,0.6503 -3.8687,0 -5.8026,-1.8318 -5.8026,-5.5023 V 15.5854 H 65.71 v -4.465 h 3.3304 V 6.77982 L 73.5606,5.5063 v 5.6141 h 4.7658 v 4.465 h -4.7658 v 9.0992 c 0,1.1677 0.2108,2.0051 0.6378,2.5018 0.4296,0.5002 1.1433,0.7486 2.1465,0.7486 0.7648,0 1.4233,-0.2168 1.9815,-0.6505 z"
           fill="#0047ab" />
      </g>
      <g
         id="Group_12">
        <path
           id="Vector_11"
           fill-rule="evenodd"
           clip-rule="evenodd"
           d="m 1.75488,15.075 c 0,-0.7895 0.19268,-1.4442 0.43802,-1.9691 C 2.43823,12.5799 2.759,12.16 3.15653,11.8451 3.55385,11.5302 4.01442,11.2997 4.54071,11.1555 5.0661,11.0112 5.64438,10.9387 6.27507,10.9387 V 30.9312 H 1.75488 Z"
           fill="#0047ab" />
      </g>
    </g>
  </g>
</svg>
